<svg id="Layer_1" data-name="Layer 1" xmlns="http://www.w3.org/2000/svg" viewBox="0 0 512 512"><defs><style>.cls-1{font-size:19px;fill:#f47d2e;font-family:aAkhirTahun, a Akhir Tahun;}.cls-2{fill:#ef8122;}.cls-3{fill:#15496f;}.cls-4{fill:#13496f;}.cls-5{fill:none;stroke:#15496f;stroke-miterlimit:10;stroke-width:4px;}</style></defs><text class="cls-1" transform="translate(167.34 343.38)">Doctera Market</text><circle class="cls-2" cx="256" cy="238.18" r="74.46"/><path class="cls-3" d="M191.48,201.38h11l2.57,8.07L222,262.6l6.59,20.7h53.64a4,4,0,0,0,3.23-1.62,2.49,2.49,0,0,0,0-3v0a4,4,0,0,0-3.2-1.62l-49.2-.29L228.5,262.6h64l16.27-53.15H283.44a28.11,28.11,0,0,1,1.11,5.62h16.24L288,257h-61.3l-13.43-41.89h15.27a27.43,27.43,0,0,1,1.11-5.62H211.45l-4.69-14.61H195.45C194.53,195.93,192.66,199.48,191.48,201.38Z"/><circle class="cls-3" cx="272.54" cy="297.96" r="5.82"/><circle class="cls-3" cx="242.27" cy="297.96" r="5.82"/><path class="cls-4" d="M230.27,223.75c3.18-.21,6.36-.4,9.55-.55l-.42.2c.76-1,3-4,3.75-5a1,1,0,0,1,2,.22c0,.08.09.32.11.41,2,7.44,4.16,16.21,6,23.65l.14.55.06.28,0,.14a1.27,1.27,0,0,0-.05-.16,1.48,1.48,0,0,0-2.84.25c0-.43.32-2.51.38-3,2-15.55,4.26-31.38,6.64-46.89a2,2,0,0,1,3.93-.19c.25,1.41.88,5.2,1.11,6.68,1.17,7,2.28,14,3.34,21l0,.14a.94.94,0,0,0-1.66-.36c.94-1.76,3.64-6.61,4.87-8.86a1.11,1.11,0,0,1,2,0c.27.62,1,2.35,1.28,3,.77,1.93,2.32,5.42,3.07,7.33.19.44.18.49.32.55l8.95.54c-1.57.1-5.31.33-6.81.4l-1.7.09a1.53,1.53,0,0,1-1.47-.5c-.31-.44-.62-1.15-.88-1.59-1.38-2.62-3.31-6.29-4.67-8.92,0-.09,0,0,.2.27a1,1,0,0,0,1.6-.25c-.3.63-2.06,4.43-2.4,5.14l-1.93,4.11a2.47,2.47,0,0,1-.2.33,1.89,1.89,0,0,1-3.23-.36c-1.61-7.11-2.91-14.31-4.32-21.46-.28-1.45-1-5.23-1.27-6.65a1.87,1.87,0,0,0,3.68-.07l0,.14,0,.28c-.13.9-1.35,9.53-1.51,10.67q-2.73,19.08-5.88,38.11a3.63,3.63,0,0,1-.43,1.53,1.84,1.84,0,0,1-3.29-.66c-.1-.55-.94-4.76-1.06-5.42-1.17-5.83-2.59-13.63-3.66-19.53,0-.1,0-.34-.08-.45a.7.7,0,0,0,.21.35.69.69,0,0,0,1-.06l-.19.21-4.18,4.63-.19.21h-.23c-3.19-.15-6.37-.34-9.55-.54Z"/><ellipse class="cls-5" cx="256.53" cy="217.8" rx="26.91" ry="27.26"/><path class="cls-3" d="M291.72,190.06c-.74-8.89-9.58-14.43-9.58-14.43s-8.91-5.89-16.77-3.06c-1.74.63-.45,3,.35,2.91a20.94,20.94,0,0,1,14.55,3s5.54,2.84,8.41,12C289.2,192.16,291.78,190.8,291.72,190.06Z"/><path class="cls-3" d="M285.76,191.17a14.46,14.46,0,0,0-6.28-10.36s-7.17-4.93-12.8-2.33c-1.67.77-.45,3,.34,2.92a15.83,15.83,0,0,1,10.59,2.25s3.31,2,5.11,7.95C283.23,193.27,285.82,191.9,285.76,191.17Z"/><path class="cls-3" d="M280,192.27a8.92,8.92,0,0,0-4-6.72s-4.13-3-7.87-1.29c-1.68.79-.45,3.08.34,2.92a7.85,7.85,0,0,1,5.66,1.21s1.79.91,2.87,4.31C277.44,194.37,280,193,280,192.27Z"/></svg>